<svg xmlns:xlink="http://www.w3.org/1999/xlink" xmlns:lucid="lucid" xmlns="http://www.w3.org/2000/svg" width="900"
     height="660.75">
    <g transform="translate(-180 60.75000000000002)" lucid:page-tab-id="Lkk2bFw1uvFG">
        <path d="M220 526c0-3.3 2.7-6 6-6h128c3.3 0 6 2.7 6 6v48c0 3.3-2.7 6-6 6H226c-3.3 0-6-2.7-6-6z" stroke="#1d262b"
              stroke-width="3" fill="#f9d2de"/>
        <use xlink:href="#a" transform="matrix(1,0,0,1,225,525) translate(12.549999999999997 30.025)"/>
        <use xlink:href="#b" transform="matrix(1,0,0,1,225,525) translate(40.5 30.025)"/>
        <path d="M380 526c0-3.3 2.7-6 6-6h128c3.3 0 6 2.7 6 6v48c0 3.3-2.7 6-6 6H386c-3.3 0-6-2.7-6-6z" stroke="#1d262b"
              stroke-width="3" fill="#f9d2de"/>
        <use xlink:href="#c" transform="matrix(1,0,0,1,385,525) translate(12.024999999999999 30.025)"/>
        <use xlink:href="#b" transform="matrix(1,0,0,1,385,525) translate(41.025 30.025)"/>
        <path d="M540 526c0-3.3 2.7-6 6-6h128c3.3 0 6 2.7 6 6v48c0 3.3-2.7 6-6 6H546c-3.3 0-6-2.7-6-6z" stroke="#1d262b"
              stroke-width="3" fill="#f9d2de"/>
        <use xlink:href="#d" transform="matrix(1,0,0,1,545,525) translate(0.07499999999998863 30.025)"/>
        <use xlink:href="#e" transform="matrix(1,0,0,1,545,525) translate(86.975 30.025)"/>
        <path d="M700 526c0-3.3 2.7-6 6-6h128c3.3 0 6 2.7 6 6v48c0 3.3-2.7 6-6 6H706c-3.3 0-6-2.7-6-6z" stroke="#1d262b"
              stroke-width="3" fill="#f9d2de"/>
        <use xlink:href="#f" transform="matrix(1,0,0,1,705,525) translate(15.049999999999997 30.025)"/>
        <use xlink:href="#e" transform="matrix(1,0,0,1,705,525) translate(72 30.025)"/>
        <path d="M200 226c0-3.3 2.7-6 6-6h648c3.3 0 6 2.7 6 6v48c0 3.3-2.7 6-6 6H206c-3.3 0-6-2.7-6-6z" stroke="#1d262b"
              stroke-width="3" fill="#b2d6ef"/>
        <use xlink:href="#g" transform="matrix(1,0,0,1,205,225) translate(244.75 30.025)"/>
        <use xlink:href="#h" transform="matrix(1,0,0,1,205,225) translate(296.3 30.025)"/>
        <use xlink:href="#i" transform="matrix(1,0,0,1,205,225) translate(374.25 30.025)"/>
        <path d="M502.67 107.5c0-3.3 2.68-6 6-6h86.66c3.32 0 6 2.7 6 6v48c0 3.3-2.68 6-6 6h-86.66c-3.32 0-6-2.7-6-6z"
              stroke="#1d262b" stroke-width="3" fill="#99d5ca"/>
        <use xlink:href="#j" transform="matrix(1,0,0,1,507.66666666666754,106.5) translate(3.049999999999997 30.025)"/>
        <path d="M621.33 107.5c0-3.3 2.7-6 6-6H714c3.3 0 6 2.7 6 6v48c0 3.3-2.7 6-6 6h-86.67c-3.3 0-6-2.7-6-6z"
              stroke="#1d262b" stroke-width="3" fill="#99d5ca"/>
        <use xlink:href="#j" transform="matrix(1,0,0,1,626.3333333333337,106.5) translate(3.049999999999997 30.025)"/>
        <path d="M740 107.5c0-3.3 2.7-6 6-6h88c3.3 0 6 2.7 6 6v48c0 3.3-2.7 6-6 6h-88c-3.3 0-6-2.7-6-6z"
              stroke="#1d262b" stroke-width="3" fill="#99d5ca"/>
        <use xlink:href="#j" transform="matrix(1,0,0,1,745,106.5) translate(4.049999999999997 30.025)"/>
        <path d="M559 20c3.3 0 6 2.7 6 6v21.75c0 3.3 2.7 6 6 6h3c3.3 0 4 1.8 1.54 4l-21.08 19c-2.46 2.2-6.46 2.2-8.92 0l-21.08-19c-2.46-2.2-1.77-4 1.54-4h3c3.3 0 6-2.7 6-6V26c0-3.3 2.7-6 6-6z"
              fill="#54c45e"/>
        <path d="M512-34.75c0-3.3 2.7-6 6-6h68c3.3 0 6 2.7 6 6v28c0 3.3-2.7 6-6 6h-68c-3.3 0-6-2.7-6-6z"
              fill="#f5fbff"/>
        <path d="M527.52-40.75h8.16m5.44 0h8.16m5.44 0h8.16m5.44 0h8.16m5.44 0H586l3.03.82 2.15 2.15.82 3.03v4.2m0 5.6v8.4m0 5.6v4.2l-.82 3.03-2.15 2.15-3.03.82h-4.08m-5.44 0h-8.16m-5.44 0h-8.16m-5.44 0h-8.16m-5.44 0h-8.16m-5.44 0H518l-3.03-.82-2.15-2.15-.82-3.03v-4.2m0-5.6v-8.4m0-5.6v-4.2l.82-3.03 2.15-2.15 3.03-.82h4.08"
              stroke="#4881b3" stroke-width="3" fill="none"/>
        <use xlink:href="#k"
             transform="matrix(1,0,0,1,517.0000000000007,-35.75000000000002) translate(11.549999999999997 18.15)"/>
        <path d="M679 20c3.3 0 6 2.7 6 6v21.75c0 3.3 2.7 6 6 6h3c3.3 0 4 1.8 1.54 4l-21.08 19c-2.46 2.2-6.46 2.2-8.92 0l-21.08-19c-2.46-2.2-1.77-4 1.54-4h3c3.3 0 6-2.7 6-6V26c0-3.3 2.7-6 6-6z"
              fill="#54c45e"/>
        <path d="M631.33-34.75c0-3.3 2.7-6 6-6H704c3.3 0 6 2.7 6 6v28c0 3.3-2.7 6-6 6h-66.67c-3.3 0-6-2.7-6-6z"
              fill="#f5fbff"/>
        <path d="M649-40.75h10m6.67 0h10m6.66 0h10m6.67 0h5l3.03.82 2.15 2.15.82 3.03v4.2m0 5.6v8.4m0 5.6v4.2l-.82 3.03-2.15 2.15-3.03.82h-5m-6.67 0h-10m-6.66 0h-10m-6.67 0h-10m-6.67 0h-5l-3.02-.82-2.15-2.15-.82-3.03v-4.2m0-5.6v-8.4m0-5.6v-4.2l.82-3.03 2.16-2.15 3.03-.82h5"
              stroke="#4881b3" stroke-width="3" fill="none"/>
        <use xlink:href="#l"
             transform="matrix(1,0,0,1,636.3333333333337,-35.75000000000002) translate(2.5249999999999986 18.15)"/>
        <path d="M799 20c3.3 0 6 2.7 6 6v21c0 3.3 2.7 6 6 6h3c3.3 0 4 1.8 1.54 4l-21.08 19c-2.46 2.2-6.46 2.2-8.92 0l-21.08-19c-2.46-2.2-1.77-4 1.54-4h3c3.3 0 6-2.7 6-6V26c0-3.3 2.7-6 6-6z"
              fill="#54c45e"/>
        <path d="M750.67-34.75c0-3.3 2.68-6 6-6h66.66c3.32 0 6 2.7 6 6v28c0 3.3-2.68 6-6 6h-66.66c-3.32 0-6-2.7-6-6z"
              fill="#f5fbff"/>
        <path d="M768.33-40.75h10m6.67 0h10m6.67 0h10m6.66 0h5l3.03.82 2.15 2.15.83 3.03v4.2m0 5.6v8.4m0 5.6v4.2l-.82 3.03-2.14 2.15-3.03.82h-5m-6.66 0h-10m-6.67 0h-10m-6.67 0h-10m-6.66 0h-5l-3.03-.82-2.15-2.15-.83-3.03v-4.2m0-5.6v-8.4m0-5.6v-4.2l.82-3.03 2.14-2.15 3.03-.82h5"
              stroke="#4881b3" stroke-width="3" fill="none"/>
        <use xlink:href="#m"
             transform="matrix(1,0,0,1,755.6666666666667,-35.75000000000002) translate(0.04999999999999716 18.15)"/>
        <use xlink:href="#n" transform="matrix(1,0,0,1,755.6666666666667,-35.75000000000002) translate(44 18.15)"/>
        <path d="M552 181.5V200" stroke="#008a0e" stroke-width="2" fill="none"/>
        <path d="M552 166.24l4.64 14.26h-9.28zM552 215.26L547.36 201h9.28z" stroke="#008a0e" stroke-width="2"
              fill="#008a0e"/>
        <path d="M670.67 181.5V200" stroke="#008a0e" stroke-width="2" fill="none"/>
        <path d="M670.67 166.24l4.63 14.26h-9.27zM670.67 215.26L666.03 201h9.27z" stroke="#008a0e" stroke-width="2"
              fill="#008a0e"/>
        <path d="M790 181.5V200" stroke="#008a0e" stroke-width="2" fill="none"/>
        <path d="M790 166.24l4.64 14.26h-9.28zM790 215.26L785.36 201h9.28z" stroke="#008a0e" stroke-width="2"
              fill="#008a0e"/>
        <path d="M400 346c0-3.3 2.7-6 6-6h108c3.3 0 6 2.7 6 6v48c0 3.3-2.7 6-6 6H406c-3.3 0-6-2.7-6-6z" stroke="#1d262b"
              stroke-width="3" fill="#f4d9ff"/>
        <use xlink:href="#o" transform="matrix(1,0,0,1,405,345) translate(15.574999999999996 30.025)"/>
        <path d="M720 346c0-3.3 2.7-6 6-6h108c3.3 0 6 2.7 6 6v48c0 3.3-2.7 6-6 6H726c-3.3 0-6-2.7-6-6z" stroke="#1d262b"
              stroke-width="3" fill="#f4d9ff"/>
        <use xlink:href="#o" transform="matrix(1,0,0,1,725,345) translate(15.574999999999996 30.025)"/>
        <path d="M220 346c0-3.3 2.7-6 6-6h108c3.3 0 6 2.7 6 6v48c0 3.3-2.7 6-6 6H226c-3.3 0-6-2.7-6-6z" stroke="#1d262b"
              stroke-width="3" fill="#f4d9ff"/>
        <use xlink:href="#o" transform="matrix(1,0,0,1,225,345) translate(15.574999999999996 30.025)"/>
        <path d="M540 346c0-3.3 2.7-6 6-6h108c3.3 0 6 2.7 6 6v48c0 3.3-2.7 6-6 6H546c-3.3 0-6-2.7-6-6z" stroke="#1d262b"
              stroke-width="3" fill="#f4d9ff"/>
        <use xlink:href="#o" transform="matrix(1,0,0,1,545,345) translate(15.574999999999996 30.025)"/>
        <path d="M280 320v-20" stroke="#d916a8" stroke-width="2" fill="none"/>
        <path d="M280 335.26L275.36 321h9.28zM280 284.74l4.64 14.26h-9.28z" stroke="#d916a8" stroke-width="2"
              fill="#d916a8"/>
        <path d="M460 320v-20" stroke="#d916a8" stroke-width="2" fill="none"/>
        <path d="M460 335.26L455.36 321h9.28zM460 284.74l4.64 14.26h-9.28z" stroke="#d916a8" stroke-width="2"
              fill="#d916a8"/>
        <path d="M600 320v-20" stroke="#d916a8" stroke-width="2" fill="none"/>
        <path d="M600 335.26L595.36 321h9.28zM600 284.74l4.64 14.26h-9.28z" stroke="#d916a8" stroke-width="2"
              fill="#d916a8"/>
        <path d="M780 320v-20" stroke="#d916a8" stroke-width="2" fill="none"/>
        <path d="M780 335.26L775.36 321h9.28zM780 284.74l4.64 14.26h-9.28z" stroke="#d916a8" stroke-width="2"
              fill="#d916a8"/>
        <path d="M940 106c0-3.3 2.7-6 6-6h108c3.3 0 6 2.7 6 6v308c0 3.3-2.7 6-6 6H946c-3.3 0-6-2.7-6-6z"
              stroke="#282c33" stroke-width="3" fill="#c7e8ac"/>
        <use xlink:href="#p" transform="matrix(1,0,0,1,945,105.00000000000004) translate(27.075 135.49375)"/>
        <use xlink:href="#q"
             transform="matrix(1,0,0,1,945,105.00000000000004) translate(1.5999999999999943 157.09375)"/>
        <use xlink:href="#r"
             transform="matrix(1,0,0,1,945,105.00000000000004) translate(25.549999999999997 178.69375)"/>
        <path d="M361.33 106c0-3.3 2.7-6 6-6h88c3.32 0 6 2.7 6 6v48c0 3.3-2.68 6-6 6h-88c-3.3 0-6-2.7-6-6z"
              stroke="#282c33" stroke-width="3" fill="#b8f5ed"/>
        <use xlink:href="#s"
             transform="matrix(1,0,0,1,366.33333333333377,104.99999999999999) translate(26.525 17.5875)"/>
        <use xlink:href="#t"
             transform="matrix(1,0,0,1,366.33333333333377,104.99999999999999) translate(2.0749999999999957 39.1875)"/>
        <path d="M411.33 162.5V200" stroke="#9391ff" stroke-width="2" fill="none"/>
        <path d="M412.33 162.53h-2v-1.03h2z" stroke="#9391ff" stroke-width=".05" fill="#9391ff"/>
        <path d="M411.33 215.26L406.7 201h9.27z" stroke="#9391ff" stroke-width="2" fill="#9391ff"/>
        <path d="M320 426c0-3.3 2.7-6 6-6h88c3.3 0 6 2.7 6 6v48c0 3.3-2.7 6-6 6h-88c-3.3 0-6-2.7-6-6z" stroke="#1d262b"
              stroke-width="3" fill="#ffdba9"/>
        <use xlink:href="#u" transform="matrix(1,0,0,1,325,425) translate(0.5499999999999972 30.025)"/>
        <path d="M640 426c0-3.3 2.7-6 6-6h88c3.3 0 6 2.7 6 6v48c0 3.3-2.7 6-6 6h-88c-3.3 0-6-2.7-6-6z" stroke="#1d262b"
              stroke-width="3" fill="#ffdba9"/>
        <use xlink:href="#u" transform="matrix(1,0,0,1,645,425) translate(0.5499999999999972 30.025)"/>
        <path d="M370 282.5V400" stroke="#ffdda6" stroke-width="2" fill="none"/>
        <path d="M371 282.53h-2v-1.03h2z" stroke="#ffdda6" stroke-width=".05" fill="#ffdda6"/>
        <path d="M370 415.26L365.36 401h9.28z" stroke="#ffdda6" stroke-width="2" fill="#ffdda6"/>
        <path d="M690 282.5V400" stroke="#ffdda6" stroke-width="2" fill="none"/>
        <path d="M691 282.53h-2v-1.03h2z" stroke="#ffdda6" stroke-width=".05" fill="#ffdda6"/>
        <path d="M690 415.26L685.36 401h9.28z" stroke="#ffdda6" stroke-width="2" fill="#ffdda6"/>
        <path d="M317.5 450H296c-3.3 0-6 2.7-6 6v44" stroke="#ffdda6" stroke-width="2" fill="none"/>
        <path d="M318.5 451h-1.03v-2h1.03z" stroke="#ffdda6" stroke-width=".05" fill="#ffdda6"/>
        <path d="M290 515.26L285.36 501h9.28z" stroke="#ffdda6" stroke-width="2" fill="#ffdda6"/>
        <path d="M422.5 450H444c3.3 0 6 2.7 6 6v44" stroke="#ffdda6" stroke-width="2" fill="none"/>
        <path d="M422.53 451h-1.03v-2h1.03z" stroke="#ffdda6" stroke-width=".05" fill="#ffdda6"/>
        <path d="M450 515.26L445.36 501h9.28z" stroke="#ffdda6" stroke-width="2" fill="#ffdda6"/>
        <path d="M637.5 450H616c-3.3 0-6 2.7-6 6v44" stroke="#ffdda6" stroke-width="2" fill="none"/>
        <path d="M638.5 451h-1.03v-2h1.03z" stroke="#ffdda6" stroke-width=".05" fill="#ffdda6"/>
        <path d="M610 515.26L605.36 501h9.28z" stroke="#ffdda6" stroke-width="2" fill="#ffdda6"/>
        <path d="M742.5 450H764c3.3 0 6 2.7 6 6v44" stroke="#ffdda6" stroke-width="2" fill="none"/>
        <path d="M742.53 451h-1.03v-2h1.03z" stroke="#ffdda6" stroke-width=".05" fill="#ffdda6"/>
        <path d="M770 515.26L765.36 501h9.28z" stroke="#ffdda6" stroke-width="2" fill="#ffdda6"/>
        <path d="M920 154c0 3.3-2.7 6-6 6h-31c-2.76 0-5 2.24-5 5s-1.5 3.34-3.34 1.28L864 154.46c-2.2-2.46-2.2-6.46 0-8.92l10.66-11.82c1.84-2.06 3.34-1.48 3.34 1.28s2.24 5 5 5h31c3.3 0 6 2.7 6 6zM920 374c0 3.3-2.7 6-6 6h-31c-2.76 0-5 2.24-5 5s-1.5 3.34-3.34 1.28L864 374.46c-2.2-2.46-2.2-6.46 0-8.92l10.66-11.82c1.84-2.06 3.34-1.48 3.34 1.28s2.24 5 5 5h31c3.3 0 6 2.7 6 6z"
              fill="#c7e8ac"/>
        <path d="M220 106c0-3.3 2.7-6 6-6h88c3.3 0 6 2.7 6 6v48c0 3.3-2.7 6-6 6h-88c-3.3 0-6-2.7-6-6z" stroke="#282c33"
              stroke-width="3" fill="#b8f5ed"/>
        <use xlink:href="#s" transform="matrix(1,0,0,1,225,104.99999999999999) translate(26.525 17.5875)"/>
        <use xlink:href="#t" transform="matrix(1,0,0,1,225,104.99999999999999) translate(2.0749999999999957 39.1875)"/>
        <path d="M270 162.5V200" stroke="#9391ff" stroke-width="2" fill="none"/>
        <path d="M271 162.53h-2v-1.03h2z" stroke="#9391ff" stroke-width=".05" fill="#9391ff"/>
        <path d="M270 215.26L265.36 201h9.28z" stroke="#9391ff" stroke-width="2" fill="#9391ff"/>
        <path d="M260-14c0-3.3 2.7-6 6-6h148c3.3 0 6 2.7 6 6v48c0 3.3-2.7 6-6 6H266c-3.3 0-6-2.7-6-6z" fill="#b8f5ed"/>
        <path d="M276.36-20h8.88m5.92 0h8.88m5.92 0h8.88m5.92 0h8.88m5.92 0h8.88m5.92 0h8.88m5.92 0h8.88m5.92 0h8.88m5.92 0h8.88m5.92 0H414l3.03.82 2.15 2.15L420-14v4.8m0 6.4v9.6m0 6.4v9.6m0 6.4V34l-.82 3.03-2.15 2.15L414 40h-4.44m-5.92 0h-8.88m-5.92 0h-8.88m-5.92 0h-8.88m-5.92 0h-8.88m-5.92 0h-8.88m-5.92 0h-8.88m-5.92 0h-8.88m-5.92 0h-8.88m-5.92 0h-8.88m-5.92 0H266l-3.03-.82-2.15-2.15L260 34v-4.8m0-6.4v-9.6m0-6.4v-9.6m0-6.4V-14l.82-3.03 2.15-2.15L266-20h4.44"
              stroke="#4881b3" stroke-width="3" fill="none"/>
        <g>
            <use xlink:href="#v" transform="matrix(1,0,0,1,265,-15) translate(10.099999999999994 30.025)"/>
            <use xlink:href="#w" transform="matrix(1,0,0,1,265,-15) translate(81 30.025)"/>
        </g>
        <path d="M340 42.5V200" stroke="#9391ff" stroke-width="2" fill="none"/>
        <path d="M341 42.53h-2V41.5h2z" stroke="#9391ff" stroke-width=".05" fill="#9391ff"/>
        <path d="M340 215.26L335.36 201h9.28z" stroke="#9391ff" stroke-width="2" fill="#9391ff"/>
        <defs>
            <path fill="#1d262b" d="M127-220V0H93v-220H8v-28h204v28h-85" id="x"/>
            <path fill="#1d262b"
                  d="M185-189c-5-48-123-54-124 2 14 75 158 14 163 119 3 78-121 87-175 55-17-10-28-26-33-46l33-7c5 56 141 63 141-1 0-78-155-14-162-118-5-82 145-84 179-34 5 7 8 16 11 25"
                  id="y"/>
            <g id="a">
                <use transform="matrix(0.05,0,0,0.05,0,0)" xlink:href="#x"/>
                <use transform="matrix(0.05,0,0,0.05,10.950000000000001,0)" xlink:href="#y"/>
            </g>
            <path fill="#1d262b"
                  d="M30-248c118-7 216 8 213 122C240-48 200 0 122 0H30v-248zM63-27c89 8 146-16 146-99s-60-101-146-95v194"
                  id="z"/>
            <path fill="#1d262b"
                  d="M141-36C126-15 110 5 73 4 37 3 15-17 15-53c-1-64 63-63 125-63 3-35-9-54-41-54-24 1-41 7-42 31l-33-3c5-37 33-52 76-52 45 0 72 20 72 64v82c-1 20 7 32 28 27v20c-31 9-61-2-59-35zM48-53c0 20 12 33 32 33 41-3 63-29 60-74-43 2-92-5-92 41"
                  id="A"/>
            <path fill="#1d262b" d="M59-47c-2 24 18 29 38 22v24C64 9 27 4 27-40v-127H5v-23h24l9-43h21v43h35v23H59v120"
                  id="B"/>
            <path fill="#1d262b"
                  d="M115-194c53 0 69 39 70 98 0 66-23 100-70 100C84 3 66-7 56-30L54 0H23l1-261h32v101c10-23 28-34 59-34zm-8 174c40 0 45-34 45-75 0-40-5-75-45-74-42 0-51 32-51 76 0 43 10 73 51 73"
                  id="C"/>
            <path fill="#1d262b"
                  d="M135-143c-3-34-86-38-87 0 15 53 115 12 119 90S17 21 10-45l28-5c4 36 97 45 98 0-10-56-113-15-118-90-4-57 82-63 122-42 12 7 21 19 24 35"
                  id="D"/>
            <path fill="#1d262b"
                  d="M100-194c63 0 86 42 84 106H49c0 40 14 67 53 68 26 1 43-12 49-29l28 8c-11 28-37 45-77 45C44 4 14-33 15-96c1-61 26-98 85-98zm52 81c6-60-76-77-97-28-3 7-6 17-6 28h103"
                  id="E"/>
            <g id="b">
                <use transform="matrix(0.05,0,0,0.05,0,0)" xlink:href="#z"/>
                <use transform="matrix(0.05,0,0,0.05,12.950000000000001,0)" xlink:href="#A"/>
                <use transform="matrix(0.05,0,0,0.05,22.950000000000003,0)" xlink:href="#B"/>
                <use transform="matrix(0.05,0,0,0.05,27.950000000000003,0)" xlink:href="#A"/>
                <use transform="matrix(0.05,0,0,0.05,37.95,0)" xlink:href="#C"/>
                <use transform="matrix(0.05,0,0,0.05,47.95,0)" xlink:href="#A"/>
                <use transform="matrix(0.05,0,0,0.05,57.95,0)" xlink:href="#D"/>
                <use transform="matrix(0.05,0,0,0.05,66.95,0)" xlink:href="#E"/>
            </g>
            <path fill="#1d262b" d="M194 0L95-120 63-95V0H30v-248h33v124l119-124h40L117-140 236 0h-42" id="F"/>
            <path fill="#1d262b" d="M137 0h-34L2-248h35l83 218 83-218h36" id="G"/>
            <g id="c">
                <use transform="matrix(0.05,0,0,0.05,0,0)" xlink:href="#F"/>
                <use transform="matrix(0.05,0,0,0.05,12,0)" xlink:href="#G"/>
            </g>
            <path fill="#1d262b"
                  d="M100-194c62-1 85 37 85 99 1 63-27 99-86 99S16-35 15-95c0-66 28-99 85-99zM99-20c44 1 53-31 53-75 0-43-8-75-51-75s-53 32-53 75 10 74 51 75"
                  id="H"/>
            <path fill="#1d262b"
                  d="M96-169c-40 0-48 33-48 73s9 75 48 75c24 0 41-14 43-38l32 2c-6 37-31 61-74 61-59 0-76-41-82-99-10-93 101-131 147-64 4 7 5 14 7 22l-32 3c-4-21-16-35-41-35"
                  id="I"/>
            <path fill="#1d262b"
                  d="M84 4C-5 8 30-112 23-190h32v120c0 31 7 50 39 49 72-2 45-101 50-169h31l1 190h-30c-1-10 1-25-2-33-11 22-28 36-60 37"
                  id="J"/>
            <path fill="#1d262b"
                  d="M210-169c-67 3-38 105-44 169h-31v-121c0-29-5-50-35-48C34-165 62-65 56 0H25l-1-190h30c1 10-1 24 2 32 10-44 99-50 107 0 11-21 27-35 58-36 85-2 47 119 55 194h-31v-121c0-29-5-49-35-48"
                  id="K"/>
            <path fill="#1d262b"
                  d="M117-194c89-4 53 116 60 194h-32v-121c0-31-8-49-39-48C34-167 62-67 57 0H25l-1-190h30c1 10-1 24 2 32 11-22 29-35 61-36"
                  id="L"/>
            <g id="d">
                <use transform="matrix(0.05,0,0,0.05,0,0)" xlink:href="#z"/>
                <use transform="matrix(0.05,0,0,0.05,12.950000000000001,0)" xlink:href="#H"/>
                <use transform="matrix(0.05,0,0,0.05,22.950000000000003,0)" xlink:href="#I"/>
                <use transform="matrix(0.05,0,0,0.05,31.950000000000003,0)" xlink:href="#J"/>
                <use transform="matrix(0.05,0,0,0.05,41.95,0)" xlink:href="#K"/>
                <use transform="matrix(0.05,0,0,0.05,56.900000000000006,0)" xlink:href="#E"/>
                <use transform="matrix(0.05,0,0,0.05,66.9,0)" xlink:href="#L"/>
                <use transform="matrix(0.05,0,0,0.05,76.9,0)" xlink:href="#B"/>
            </g>
            <path fill="#1d262b" d="M114-163C36-179 61-72 57 0H25l-1-190h30c1 12-1 29 2 39 6-27 23-49 58-41v29" id="M"/>
            <g id="e">
                <use transform="matrix(0.05,0,0,0.05,0,0)" xlink:href="#y"/>
                <use transform="matrix(0.05,0,0,0.05,12,0)" xlink:href="#B"/>
                <use transform="matrix(0.05,0,0,0.05,17,0)" xlink:href="#H"/>
                <use transform="matrix(0.05,0,0,0.05,27,0)" xlink:href="#M"/>
                <use transform="matrix(0.05,0,0,0.05,32.95,0)" xlink:href="#E"/>
            </g>
            <path fill="#1d262b"
                  d="M140-251c81 0 123 46 123 126C263-46 219 4 140 4 59 4 17-45 17-125s42-126 123-126zm0 227c63 0 89-41 89-101s-29-99-89-99c-61 0-89 39-89 99S79-25 140-24"
                  id="N"/>
            <path fill="#1d262b" d="M24-231v-30h32v30H24zM-9 49c24 4 33-6 33-30v-209h32V24c2 40-23 58-65 49V49" id="O"/>
            <g id="f">
                <use transform="matrix(0.05,0,0,0.05,0,0)" xlink:href="#N"/>
                <use transform="matrix(0.05,0,0,0.05,14,0)" xlink:href="#C"/>
                <use transform="matrix(0.05,0,0,0.05,24,0)" xlink:href="#O"/>
                <use transform="matrix(0.05,0,0,0.05,27.950000000000003,0)" xlink:href="#E"/>
                <use transform="matrix(0.05,0,0,0.05,37.95,0)" xlink:href="#I"/>
                <use transform="matrix(0.05,0,0,0.05,46.95,0)" xlink:href="#B"/>
            </g>
            <path fill="#1d262b" d="M190 0L58-211 59 0H30v-248h39L202-35l-2-213h31V0h-41" id="P"/>
            <path fill="#1d262b" d="M205 0l-28-72H64L36 0H1l101-248h38L239 0h-34zm-38-99l-47-123c-12 45-31 82-46 123h93"
                  id="Q"/>
            <g id="g">
                <use transform="matrix(0.05,0,0,0.05,0,0)" xlink:href="#P"/>
                <use transform="matrix(0.05,0,0,0.05,12.950000000000001,0)" xlink:href="#Q"/>
                <use transform="matrix(0.05,0,0,0.05,23.6,0)" xlink:href="#x"/>
                <use transform="matrix(0.05,0,0,0.05,34.550000000000004,0)" xlink:href="#y"/>
            </g>
            <path fill="#1d262b"
                  d="M240 0l2-218c-23 76-54 145-80 218h-23L58-218 59 0H30v-248h44l77 211c21-75 51-140 76-211h43V0h-30"
                  id="R"/>
            <path fill="#1d262b"
                  d="M177-190C167-65 218 103 67 71c-23-6-38-20-44-43l32-5c15 47 100 32 89-28v-30C133-14 115 1 83 1 29 1 15-40 15-95c0-56 16-97 71-98 29-1 48 16 59 35 1-10 0-23 2-32h30zM94-22c36 0 50-32 50-73 0-42-14-75-50-75-39 0-46 34-46 75s6 73 46 73"
                  id="S"/>
            <g id="h">
                <use transform="matrix(0.05,0,0,0.05,0,0)" xlink:href="#R"/>
                <use transform="matrix(0.05,0,0,0.05,14.950000000000001,0)" xlink:href="#E"/>
                <use transform="matrix(0.05,0,0,0.05,24.950000000000003,0)" xlink:href="#D"/>
                <use transform="matrix(0.05,0,0,0.05,33.95,0)" xlink:href="#D"/>
                <use transform="matrix(0.05,0,0,0.05,42.95,0)" xlink:href="#A"/>
                <use transform="matrix(0.05,0,0,0.05,52.95,0)" xlink:href="#S"/>
                <use transform="matrix(0.05,0,0,0.05,62.95,0)" xlink:href="#E"/>
            </g>
            <path fill="#1d262b"
                  d="M160-131c35 5 61 23 61 61C221 17 115-2 30 0v-248c76 3 177-17 177 60 0 33-19 50-47 57zm-97-11c50-1 110 9 110-42 0-47-63-36-110-37v79zm0 115c55-2 124 14 124-45 0-56-70-42-124-44v89"
                  id="T"/>
            <g id="i">
                <use transform="matrix(0.05,0,0,0.05,0,0)" xlink:href="#T"/>
                <use transform="matrix(0.05,0,0,0.05,12,0)" xlink:href="#J"/>
                <use transform="matrix(0.05,0,0,0.05,22,0)" xlink:href="#D"/>
            </g>
            <path fill="#1d262b"
                  d="M212-179c-10-28-35-45-73-45-59 0-87 40-87 99 0 60 29 101 89 101 43 0 62-24 78-52l27 14C228-24 195 4 139 4 59 4 22-46 18-125c-6-104 99-153 187-111 19 9 31 26 39 46"
                  id="U"/>
            <g id="j">
                <use transform="matrix(0.05,0,0,0.05,0,0)" xlink:href="#U"/>
                <use transform="matrix(0.05,0,0,0.05,12.950000000000001,0)" xlink:href="#H"/>
                <use transform="matrix(0.05,0,0,0.05,22.950000000000003,0)" xlink:href="#L"/>
                <use transform="matrix(0.05,0,0,0.05,32.95,0)" xlink:href="#L"/>
                <use transform="matrix(0.05,0,0,0.05,42.95,0)" xlink:href="#E"/>
                <use transform="matrix(0.05,0,0,0.05,52.95,0)" xlink:href="#I"/>
                <use transform="matrix(0.05,0,0,0.05,61.95,0)" xlink:href="#B"/>
                <use transform="matrix(0.05,0,0,0.05,66.95,0)" xlink:href="#H"/>
                <use transform="matrix(0.05,0,0,0.05,76.95,0)" xlink:href="#M"/>
            </g>
            <path fill="#1d262b"
                  d="M233-177c-1 41-23 64-60 70L243 0h-38l-65-103H63V0H30v-248c88 3 205-21 203 71zM63-129c60-2 137 13 137-47 0-61-80-42-137-45v92"
                  id="V"/>
            <path fill="#1d262b" d="M30 0v-248h187v28H63v79h144v27H63v87h162V0H30" id="W"/>
            <g id="k">
                <use transform="matrix(0.05,0,0,0.05,0,0)" xlink:href="#V"/>
                <use transform="matrix(0.05,0,0,0.05,12.950000000000001,0)" xlink:href="#W"/>
                <use transform="matrix(0.05,0,0,0.05,24.950000000000003,0)" xlink:href="#y"/>
                <use transform="matrix(0.05,0,0,0.05,36.95,0)" xlink:href="#x"/>
            </g>
            <path fill="#1d262b"
                  d="M85-194c31 0 48 13 60 33l-1-100h32l1 261h-30c-2-10 0-23-3-31C134-8 116 4 85 4 32 4 16-35 15-94c0-66 23-100 70-100zm9 24c-40 0-46 34-46 75 0 40 6 74 45 74 42 0 51-32 51-76 0-42-9-74-50-73"
                  id="X"/>
            <g id="l">
                <use transform="matrix(0.05,0,0,0.05,0,0)" xlink:href="#R"/>
                <use transform="matrix(0.05,0,0,0.05,14.950000000000001,0)" xlink:href="#H"/>
                <use transform="matrix(0.05,0,0,0.05,24.950000000000003,0)" xlink:href="#X"/>
                <use transform="matrix(0.05,0,0,0.05,34.95,0)" xlink:href="#C"/>
                <use transform="matrix(0.05,0,0,0.05,44.95,0)" xlink:href="#J"/>
                <use transform="matrix(0.05,0,0,0.05,54.95,0)" xlink:href="#D"/>
            </g>
            <path fill="#1d262b"
                  d="M30-248c87 1 191-15 191 75 0 78-77 80-158 76V0H30v-248zm33 125c57 0 124 11 124-50 0-59-68-47-124-48v98"
                  id="Y"/>
            <g id="m">
                <use transform="matrix(0.05,0,0,0.05,0,0)" xlink:href="#N"/>
                <use transform="matrix(0.05,0,0,0.05,14,0)" xlink:href="#Y"/>
                <use transform="matrix(0.05,0,0,0.05,26,0)" xlink:href="#U"/>
            </g>
            <path fill="#1d262b"
                  d="M232-93c-1 65-40 97-104 97C67 4 28-28 28-90v-158h33c8 89-33 224 67 224 102 0 64-133 71-224h33v155"
                  id="Z"/>
            <g id="n">
                <use transform="matrix(0.05,0,0,0.05,0,0)" xlink:href="#Z"/>
                <use transform="matrix(0.05,0,0,0.05,12.950000000000001,0)" xlink:href="#Q"/>
            </g>
            <path fill="#1d262b" d="M108 0H70L1-190h34L89-25l56-165h34" id="aa"/>
            <g id="o">
                <use transform="matrix(0.05,0,0,0.05,0,0)" xlink:href="#U"/>
                <use transform="matrix(0.05,0,0,0.05,12.950000000000001,0)" xlink:href="#H"/>
                <use transform="matrix(0.05,0,0,0.05,22.950000000000003,0)" xlink:href="#L"/>
                <use transform="matrix(0.05,0,0,0.05,32.95,0)" xlink:href="#aa"/>
                <use transform="matrix(0.05,0,0,0.05,41.95,0)" xlink:href="#E"/>
                <use transform="matrix(0.05,0,0,0.05,51.95,0)" xlink:href="#M"/>
                <use transform="matrix(0.05,0,0,0.05,57.900000000000006,0)" xlink:href="#B"/>
                <use transform="matrix(0.05,0,0,0.05,62.900000000000006,0)" xlink:href="#E"/>
                <use transform="matrix(0.05,0,0,0.05,72.9,0)" xlink:href="#M"/>
            </g>
            <path fill="#1d262b" d="M24-231v-30h32v30H24zM24 0v-190h32V0H24" id="ab"/>
            <path fill="#1d262b" d="M101-234c-31-9-42 10-38 44h38v23H63V0H32v-167H5v-23h27c-7-52 17-82 69-68v24"
                  id="ac"/>
            <g id="p">
                <use transform="matrix(0.05,0,0,0.05,0,0)" xlink:href="#Z"/>
                <use transform="matrix(0.05,0,0,0.05,12.950000000000001,0)" xlink:href="#L"/>
                <use transform="matrix(0.05,0,0,0.05,22.950000000000003,0)" xlink:href="#ab"/>
                <use transform="matrix(0.05,0,0,0.05,26.900000000000002,0)" xlink:href="#ac"/>
                <use transform="matrix(0.05,0,0,0.05,31.900000000000002,0)" xlink:href="#ab"/>
                <use transform="matrix(0.05,0,0,0.05,35.85,0)" xlink:href="#E"/>
                <use transform="matrix(0.05,0,0,0.05,45.85,0)" xlink:href="#X"/>
            </g>
            <g id="q">
                <use transform="matrix(0.05,0,0,0.05,0,0)" xlink:href="#U"/>
                <use transform="matrix(0.05,0,0,0.05,12.950000000000001,0)" xlink:href="#H"/>
                <use transform="matrix(0.05,0,0,0.05,22.950000000000003,0)" xlink:href="#L"/>
                <use transform="matrix(0.05,0,0,0.05,32.95,0)" xlink:href="#ac"/>
                <use transform="matrix(0.05,0,0,0.05,37.95,0)" xlink:href="#ab"/>
                <use transform="matrix(0.05,0,0,0.05,41.900000000000006,0)" xlink:href="#S"/>
                <use transform="matrix(0.05,0,0,0.05,51.900000000000006,0)" xlink:href="#J"/>
                <use transform="matrix(0.05,0,0,0.05,61.900000000000006,0)" xlink:href="#M"/>
                <use transform="matrix(0.05,0,0,0.05,67.85000000000001,0)" xlink:href="#A"/>
                <use transform="matrix(0.05,0,0,0.05,77.85000000000001,0)" xlink:href="#B"/>
                <use transform="matrix(0.05,0,0,0.05,82.85000000000001,0)" xlink:href="#ab"/>
                <use transform="matrix(0.05,0,0,0.05,86.80000000000001,0)" xlink:href="#H"/>
                <use transform="matrix(0.05,0,0,0.05,96.80000000000001,0)" xlink:href="#L"/>
            </g>
            <path fill="#1d262b" d="M24 0v-261h32V0H24" id="ad"/>
            <g id="r">
                <use transform="matrix(0.05,0,0,0.05,0,0)" xlink:href="#R"/>
                <use transform="matrix(0.05,0,0,0.05,14.950000000000001,0)" xlink:href="#H"/>
                <use transform="matrix(0.05,0,0,0.05,24.950000000000003,0)" xlink:href="#X"/>
                <use transform="matrix(0.05,0,0,0.05,34.95,0)" xlink:href="#J"/>
                <use transform="matrix(0.05,0,0,0.05,44.95,0)" xlink:href="#ad"/>
                <use transform="matrix(0.05,0,0,0.05,48.900000000000006,0)" xlink:href="#E"/>
            </g>
            <path fill="#1d262b" d="M143 0L79-87 56-68V0H24v-261h32v163l83-92h37l-77 82L181 0h-38" id="ae"/>
            <g id="s">
                <use transform="matrix(0.05,0,0,0.05,0,0)" xlink:href="#x"/>
                <use transform="matrix(0.05,0,0,0.05,8.950000000000001,0)" xlink:href="#A"/>
                <use transform="matrix(0.05,0,0,0.05,18.950000000000003,0)" xlink:href="#D"/>
                <use transform="matrix(0.05,0,0,0.05,27.950000000000003,0)" xlink:href="#ae"/>
            </g>
            <path fill="#1d262b"
                  d="M115-194c55 1 70 41 70 98S169 2 115 4C84 4 66-9 55-30l1 105H24l-1-265h31l2 30c10-21 28-34 59-34zm-8 174c40 0 45-34 45-75s-6-73-45-74c-42 0-51 32-51 76 0 43 10 73 51 73"
                  id="af"/>
            <path fill="#1d262b"
                  d="M106-169C34-169 62-67 57 0H25v-261h32l-1 103c12-21 28-36 61-36 89 0 53 116 60 194h-32v-121c2-32-8-49-39-48"
                  id="ag"/>
            <g id="t">
                <use transform="matrix(0.05,0,0,0.05,0,0)" xlink:href="#z"/>
                <use transform="matrix(0.05,0,0,0.05,12.950000000000001,0)" xlink:href="#ab"/>
                <use transform="matrix(0.05,0,0,0.05,16.900000000000002,0)" xlink:href="#D"/>
                <use transform="matrix(0.05,0,0,0.05,25.900000000000002,0)" xlink:href="#af"/>
                <use transform="matrix(0.05,0,0,0.05,35.900000000000006,0)" xlink:href="#A"/>
                <use transform="matrix(0.05,0,0,0.05,45.900000000000006,0)" xlink:href="#B"/>
                <use transform="matrix(0.05,0,0,0.05,50.900000000000006,0)" xlink:href="#I"/>
                <use transform="matrix(0.05,0,0,0.05,59.900000000000006,0)" xlink:href="#ag"/>
                <use transform="matrix(0.05,0,0,0.05,69.9,0)" xlink:href="#E"/>
                <use transform="matrix(0.05,0,0,0.05,79.9,0)" xlink:href="#M"/>
            </g>
            <g id="u">
                <use transform="matrix(0.05,0,0,0.05,0,0)" xlink:href="#Q"/>
                <use transform="matrix(0.05,0,0,0.05,12,0)" xlink:href="#S"/>
                <use transform="matrix(0.05,0,0,0.05,22,0)" xlink:href="#S"/>
                <use transform="matrix(0.05,0,0,0.05,32,0)" xlink:href="#M"/>
                <use transform="matrix(0.05,0,0,0.05,37.95,0)" xlink:href="#E"/>
                <use transform="matrix(0.05,0,0,0.05,47.95,0)" xlink:href="#S"/>
                <use transform="matrix(0.05,0,0,0.05,57.95,0)" xlink:href="#A"/>
                <use transform="matrix(0.05,0,0,0.05,67.95,0)" xlink:href="#B"/>
                <use transform="matrix(0.05,0,0,0.05,72.95,0)" xlink:href="#H"/>
                <use transform="matrix(0.05,0,0,0.05,82.95,0)" xlink:href="#M"/>
            </g>
            <path fill="#1d262b" d="M141 0L90-78 38 0H4l68-98-65-92h35l48 74 47-74h35l-64 92 68 98h-35" id="ah"/>
            <g id="v">
                <use transform="matrix(0.05,0,0,0.05,0,0)" xlink:href="#W"/>
                <use transform="matrix(0.05,0,0,0.05,12,0)" xlink:href="#ah"/>
                <use transform="matrix(0.05,0,0,0.05,21,0)" xlink:href="#B"/>
                <use transform="matrix(0.05,0,0,0.05,26,0)" xlink:href="#E"/>
                <use transform="matrix(0.05,0,0,0.05,36,0)" xlink:href="#M"/>
                <use transform="matrix(0.05,0,0,0.05,41.95,0)" xlink:href="#L"/>
                <use transform="matrix(0.05,0,0,0.05,51.95,0)" xlink:href="#A"/>
                <use transform="matrix(0.05,0,0,0.05,61.95,0)" xlink:href="#ad"/>
            </g>
            <g id="w">
                <use transform="matrix(0.05,0,0,0.05,0,0)" xlink:href="#y"/>
                <use transform="matrix(0.05,0,0,0.05,12,0)" xlink:href="#ab"/>
                <use transform="matrix(0.05,0,0,0.05,15.949999999999998,0)" xlink:href="#S"/>
                <use transform="matrix(0.05,0,0,0.05,25.950000000000003,0)" xlink:href="#L"/>
                <use transform="matrix(0.05,0,0,0.05,35.95,0)" xlink:href="#A"/>
                <use transform="matrix(0.05,0,0,0.05,45.95,0)" xlink:href="#ad"/>
                <use transform="matrix(0.05,0,0,0.05,49.900000000000006,0)" xlink:href="#D"/>
            </g>
        </defs>
    </g>
</svg>